# xmcd
#
# Track frame offsets:
#	150
#	22180
#	52877
#	77891
#	93438
#	111254
#	124534
#	142400
#	162344
#	184220
#	198968
#	211117
#	233187
#	253642
#	269804
#	292435
#
# Disc length: 4095 seconds
#
# Revision: 0
# Processed by: cddbd v1.5.2PL0 Copyright (c) Steve Scherf et al.
# Submitted via: EasyCDDAExtractor 16.0.6.1
#
DISCID=fa0ffd10
DTITLE=Συλλογικός δίσκος - Σαράντα οκτώ αδέσποτα ρεμπέτικα 1
DYEAR=1993
DGENRE=Ρεμπέτικη
TTITLE0=Λεμπέσης Γιάννης - Τα μαλλιά σου τα πλεμμένα [Αϊδίνικο ζεϊμπέκ. 9)8 Πό
TTITLE0=λης προ 1900,ουσάκ, πρ. ταξίμι με τζουρά]
TTITLE1=Λεμπέσης Γιάννης-Νικολάου Ασημένια - Γιωργίτσα  [Αργός καρσιλαμάς 9)8 
TTITLE1=Αλάτσατα Ερυθραίας, διατ. μινόρε και ουσάκ, πρ. ταξίμι ούτι]
TTITLE2=Λεμπέσης Γιάννης - Μπαγλαμάδες [Γρήγορο ζεϊμπέκικο 9)8, καμηλιέρικο, π
TTITLE2=ρο του 1870]
TTITLE3=Λεμπέσης Γιάννης - Μωρή Ντουντού [Απτάλικο 9)8 σε γνωστό χαβά του 1900
TTITLE3=, δρόμος ουσάκ]
TTITLE4=Λεμπέσης Γιάννης - Η τράτα [συρτός 2)4 του 1900, δρόμοι νεχαβέντ και σ
TTITLE4=αμπάχ]
TTITLE5=Λεμπέσης Γιάννης - Αντριάννα μου γλυκειά[καλαματιανό 7)8, λαϊκό της Αθ
TTITLE5=ήνας(βατραχονήσι)του1850,δρόμος ραστ]
TTITLE6=Λεμπέσης Γιάννης-Νικολάου Ασημένια - Τον άλλο μήνα [αργό ακουστικό τσι
TTITLE6=φτετέλι 4)4 κρητικής μουσ. παράδοσης, δρόμος ουσάκ]
TTITLE7=Νικολάου Ασημένια - Τζιβαέρι [αργό ακουστικό συρτό 2)4 μουσ. παράδ. Σμ
TTITLE7=ύρνης προ 1900, δρόμος διατονικό μινόρε]
TTITLE8=Λεμπέσης Γιάννης - Πότε μαύρα, πότε άσπρα [αργό τσιφτετέλι 2)4 Σμύρνης
TTITLE8=προ 1900, δρόμος σαμπάχ]
TTITLE9=Ζορμπάς Γιώργος - Από λίγο-λίγο [αργιλαμάς 9)8 Πόλη προ 1900, δρόμος δ
TTITLE9=ιατονικό μινόρε]
TTITLE10=Λεμπέσης Γιάννης - Μπάτσοι και χωροφυλάκοι [καρσιλαμάς 9)8 1900, δρόμ
TTITLE10=οι διατονικό μινόρε και ουσάκ]
TTITLE11=Λεμπέσης Γιάννης-Νικολάου Ασημένια - Μελαχροινό με τις ελιές [συρτός 
TTITLE11=2)4 Σμύρνης, δρόμος ραστ, προηγ ταξίμι με σαντούρι]
TTITLE12=Άνευ ερμηνευτού - Συρτός πολίτικος [συρτός 2)4 μουσ. παράδ. Πόλης, δρ
TTITLE12=όμος ραστ]
TTITLE13=Νικολάου Ασημένια - Ολμάζ [απτάλικο 9)8 αρχών 20ου Πόλης σε συγκεκρ. 
TTITLE13=χαβά, δρόμος χιτζάζ]
TTITLE14=Λεμπέσης Γιάννης - Ήσουνα ξυπόλυτη [γιουρούκικο ζεϊμπέκικο 9)8 σε αρχ
TTITLE14=έγονο χαβά 17ου αι., δρόμος σαμπἀχ]
TTITLE15=Άνευ ερμηνευτού - Σμύρνη και Κορδελιό [ούτι Ν. Σαραγούδας, δρόμοι χου
TTITLE15=ζάμ, ουσάκ, κιουρδί]
EXTD=
EXTT0=
EXTT1=
EXTT2=
EXTT3=
EXTT4=
EXTT5=
EXTT6=
EXTT7=
EXTT8=
EXTT9=
EXTT10=
EXTT11=
EXTT12=
EXTT13=
EXTT14=
EXTT15=
PLAYORDER=
